<svg xmlns="http://www.w3.org/2000/svg" width="30" height="25" viewBox="0 0 30 25">
  <g id="Group_128" data-name="Group 128" transform="translate(-9.947 -12.329)">
    <path id="Path_8" data-name="Path 8" d="M12.507,29.457c1.057-1.018,1.981-2.05,3.047-2.9a27.815,27.815,0,0,1,5.738-3.086,6.638,6.638,0,0,1,3.646-.43c1.987.229,3.979.444,5.95.774a9.953,9.953,0,0,1,4.12,2.032c-.412,0-.826.015-1.238,0a11.152,11.152,0,0,0-3.416.4c-.3.082-.521.068-.676-.254a1.351,1.351,0,0,0-.46-.5l.407.883-2.62.855-1.166-2.35-.1.05.966,2.421c-.675.352-1.3.693-1.94,1-.487.237-.756.1-.946-.4-.228-.6-.474-1.2-.713-1.8l-.15.054.778,2.083c-.9,0-1.706.012-2.515-.016-.1,0-.217-.2-.284-.336-.354-.688-.7-1.382-1.041-2.075l-.147.069L20.905,28.3c-.837,0-1.559.008-2.281-.01-.091,0-.2-.12-.264-.212a2.615,2.615,0,0,0-.457-.608l.326.8-3,.388.013.121,3-.193-.272.653c.054-.009.1-.007.1-.018.231-.677.779-.649,1.343-.623.451.022.9,0,1.456,0l-.547,1.08.065.045a1.759,1.759,0,0,0,.328-.422.931.931,0,0,1,1.177-.633c.57.086,1.151.105,1.841.163-.159.148-.228.221-.306.284-1.235,1-2.482,1.982-3.7,3-.255.215-.424.139-.649.039-1.677-.743-3.352-1.494-5.038-2.218C13.607,29.755,13.131,29.651,12.507,29.457Z" transform="translate(-2.56 -5.835)" fill="#083"/>
    <path id="Path_9" data-name="Path 9" d="M45.4,35.2a3.842,3.842,0,0,1,.057,3.166A11.645,11.645,0,0,1,42.2,43.1a20.828,20.828,0,0,1-3.85,2.886,14.967,14.967,0,0,1-8.176,1.828c-1.155-.047-2.312-.1-3.459-.228A6.743,6.743,0,0,1,23,45.776a10.894,10.894,0,0,1-1.172-1.249,22.935,22.935,0,0,0,5.55.738,21.642,21.642,0,0,0,6.667-.743,19.713,19.713,0,0,0,4.83-1.786A13.9,13.9,0,0,0,43.444,39,10.354,10.354,0,0,0,45.4,35.2Z" transform="translate(-5.829 -10.496)" fill="#453535"/>
    <path id="Path_10" data-name="Path 10" d="M44.91,23.813l-2.827-.482.065-.987-.039-.008-.16.911c-.739-.448-1.433-.856-2.107-1.3-.076-.05-.074-.285-.042-.418a6.436,6.436,0,0,0,.247-1.314l-.559,1.494-2.361-1.031.568-1.94-.093-.027-.679,1.925c-.636-.135-1.239-.253-1.838-.394-.27-.064-.335-.242-.245-.519.191-.587.356-1.181.518-1.777a1.129,1.129,0,0,0,0-.542l-.724,2.478c-.417-.341-.784-.633-1.141-.935-.285-.24-.738-.405-.475-.943l-.225.362-1.9-1.2-.079.116,1.788,1.363-.786.392c.059.011.112.039.136.023.773-.52,1.235.05,1.731.491.193.172.379.352.63.586-.2,0-.347.013-.491,0-1.2-.123-2.4-.245-3.59-.387a.566.566,0,0,1-.395-.249c-.514-1.132-1-2.276-1.5-3.413a13.545,13.545,0,0,1,6.206-.619,13.047,13.047,0,0,1,4.142,1.207,10.563,10.563,0,0,1,2.476,2.1q1.212,1.3,2.406,2.622A6.526,6.526,0,0,1,44.91,23.813Z" transform="translate(-8.086 -2.99)" fill="#083"/>
    <path id="Path_11" data-name="Path 11" d="M42.687,29.709c.477-.234.878-.452,1.295-.631a.805.805,0,0,1,1.063.4.955.955,0,0,1-.262,1.217c-.259.161-.541.286-.858.451.746,1.053.161,2-.3,2.878a12.14,12.14,0,0,1-3.885,4.556A17.982,17.982,0,0,1,33.59,41.31c-1.438.328-2.883.642-4.341.855a24.9,24.9,0,0,1-5.5-.156,6.754,6.754,0,0,1-2.635-.63,1.711,1.711,0,0,1-.963-2.152,12.488,12.488,0,0,1,4.559-6.565,24.6,24.6,0,0,1,5.145-2.924,18.014,18.014,0,0,1,9.217-1.314c.388.047.775.095,1.163.136A3.072,3.072,0,0,1,42.687,29.709Zm-15.921,11.5c.868-.042,1.946-.041,3.01-.161a16.068,16.068,0,0,0,3.06-.566,30.55,30.55,0,0,0,5.433-2.376,9.717,9.717,0,0,0,4.738-5.269,1.539,1.539,0,0,0-.615-2,.909.909,0,0,1-.358-.373,1.708,1.708,0,0,0-1.313-1.192,23.046,23.046,0,0,0-3.167-.477,16.012,16.012,0,0,0-8.593,1.955,15.25,15.25,0,0,0-5.52,4.061,10.886,10.886,0,0,0-1.95,3.729c-.285,1.067-.081,1.869,1.2,2.179a5.081,5.081,0,0,0,.66.163C24.417,41,25.486,41.091,26.765,41.209Z" transform="translate(-5.211 -7.934)" fill="#453535"/>
    <path id="Path_12" data-name="Path 12" d="M27.471,41.462c-1.279-.119-2.348-.213-3.416-.323a5.079,5.079,0,0,1-.66-.163c-1.281-.31-1.484-1.112-1.2-2.179a10.886,10.886,0,0,1,1.95-3.729,15.25,15.25,0,0,1,5.52-4.061,16.012,16.012,0,0,1,8.593-1.955,23.045,23.045,0,0,1,3.167.477,1.708,1.708,0,0,1,1.313,1.192.909.909,0,0,0,.358.373,1.539,1.539,0,0,1,.615,2,9.717,9.717,0,0,1-4.738,5.269,30.55,30.55,0,0,1-5.433,2.376,16.068,16.068,0,0,1-3.06.566C29.417,41.42,28.339,41.42,27.471,41.462Zm4.061-1.378.033.108a2.331,2.331,0,0,0,.8-.163,11.042,11.042,0,0,1,1.669-.614c.73-.324,1.522-.469,2.21-.835.511-.272,1.006-.561,1.53-.816a16.312,16.312,0,0,0,1.861-1.215c.359-.241.748-.454,1.089-.716a14.169,14.169,0,0,0,1.521-1.41c.168-.174.2-.466.35-.67a1.282,1.282,0,0,0,.074-1.457,6.127,6.127,0,0,1-.238-.567c-.179-.409-.254-.965-.566-1.193a9.265,9.265,0,0,0-2.382-1.01c-.52-.183-.693.123-1.468-.04a5.378,5.378,0,0,0-2.111.155c-.546.116-1.1.3-1.639.463-.619.192-1.272.312-1.852.537-.729.283-1.48.557-2.181.894-.582.28-1.139.634-1.722.937a17.691,17.691,0,0,0-1.655.986c-.467.313-.885.706-1.348,1.04-.4.293-.752.7-1.163,1.025a1.816,1.816,0,0,0-.324.528,1.234,1.234,0,0,1-.219.36,2.322,2.322,0,0,0-.747,1.9,1.973,1.973,0,0,0,1.754,1.7,4.212,4.212,0,0,1,1.765.5,2.858,2.858,0,0,0,1.546.283,27.557,27.557,0,0,0,2.8-.5A4.5,4.5,0,0,0,31.533,40.083Z" transform="translate(-5.909 -8.161)" fill="#fff"/>
    <path id="Path_2099" data-name="Path 2099" d="M35.639,29.462l-2.651.775L30.009,31.42l-2.774,1.591-2.162,1.917-1.509,1.795-.571,2.447.367.979.857.571,1.917.367,2.08.122,2.611-.122,2.774-.693,3.834-1.55,2.774-2L42,35.744l1.183-1.428.408-1.754-.489-1.02-.612-.734-.734-.775-1.305-.449-2.529-.163Z" transform="translate(-6.225 -8.294)" fill="#fff"/>
  </g>
</svg>
